<svg width="50" height="50" viewBox="0 0 50 50" fill="none" xmlns="http://www.w3.org/2000/svg">
<path d="M0.982427 50.0001C1.52501 50.0001 1.96485 49.5576 1.96485 49.0119C1.96485 48.4661 1.52501 48.0237 0.982427 48.0237C0.439848 48.0237 0 48.4661 0 49.0119C0 49.5576 0.439848 50.0001 0.982427 50.0001Z" fill="#FFE97F"/>
<path d="M26.0748 24.9361C26.6163 24.9361 27.0553 24.4945 27.0553 23.9498C27.0553 23.4052 26.6163 22.9636 26.0748 22.9636C25.5333 22.9636 25.0944 23.4052 25.0944 23.9498C25.0944 24.4945 25.5333 24.9361 26.0748 24.9361Z" fill="#FFE97F"/>
<path d="M38.9141 11.4477C38.1259 10.6548 37.078 10.2183 35.9633 10.2183C34.8487 10.2183 33.8006 10.655 33.0125 11.4477C31.3855 13.0844 31.3855 15.7474 33.0125 17.384C33.8262 18.2023 34.8946 18.6114 35.9633 18.6114C37.0318 18.6114 38.1006 18.2021 38.9141 17.384C40.5412 15.7473 40.5412 13.0843 38.9141 11.4477ZM37.5277 15.9892C36.6651 16.8568 35.2615 16.8568 34.3991 15.9892C33.5365 15.1217 33.5365 13.7099 34.3991 12.8423C34.8169 12.4219 35.3724 12.1905 35.9633 12.1905C36.5543 12.1905 37.1097 12.4219 37.5276 12.8423C38.3902 13.7099 38.3902 15.1217 37.5277 15.9892Z" fill="#FFE97F"/>
<path d="M12.247 40.27C11.7622 40.0272 11.1738 40.2257 10.9324 40.7132L9.76458 43.0722C9.25677 44.0978 8.23547 44.7836 7.09894 44.8618L5.74073 44.9553C5.51114 44.9708 5.36016 44.8557 5.29034 44.7855C5.22051 44.7153 5.10586 44.5631 5.12149 44.3324L5.21446 42.9663C5.29229 41.8232 5.97413 40.7958 6.99367 40.285L9.3388 39.1104C9.82357 38.8676 10.0208 38.2756 9.77943 37.788C9.53812 37.3005 8.94954 37.102 8.46477 37.3448L6.11964 38.5195C4.47979 39.3408 3.3833 40.9931 3.2581 42.8315L3.16513 44.1976C3.11494 44.935 3.38408 45.6576 3.90361 46.1802C4.38193 46.6613 5.02891 46.9291 5.70079 46.9291C5.7585 46.9291 5.81661 46.9271 5.87462 46.9231L7.23283 46.8295C9.06057 46.7037 10.7032 45.6009 11.5198 43.9512L12.6875 41.5924C12.929 41.1047 12.7317 40.5128 12.247 40.27Z" fill="#FFE97F"/>
<path d="M49.3235 0.656918C48.8635 0.201036 48.2297 -0.0373658 47.5859 0.00477449L46.673 0.0633191C38.4875 0.588944 30.827 4.5632 25.6558 10.9672L23.507 13.6281L17.8836 13.462C17.874 13.4617 17.8644 13.4616 17.8549 13.4616C13.3951 13.4616 9.20222 15.2085 6.04859 18.3805L0.288989 24.174C0.0150617 24.4495 -0.0719505 24.8616 0.0671127 25.2252C0.206176 25.589 0.545045 25.8363 0.931961 25.8561L13.1238 26.4862L12.6268 27.1018C12.3763 27.4121 12.3366 27.8437 12.5266 28.1948C12.7176 28.548 12.9178 28.8957 13.1266 29.2377L10.2353 32.6901C9.98816 32.9853 9.93494 33.3985 10.0989 33.7474C10.7305 35.0897 11.5686 36.2957 12.5905 37.3321C13.6372 38.3937 14.8611 39.2619 16.2281 39.9126C16.3617 39.9763 16.505 40.0074 16.6474 40.0074C16.8682 40.0074 17.0871 39.9324 17.2653 39.7871C17.8881 39.2789 18.6062 38.676 19.3007 38.0931C19.7957 37.6776 20.3022 37.2526 20.7755 36.8607C21.058 37.0317 21.3441 37.1975 21.6344 37.3563C21.7813 37.4367 21.9423 37.4763 22.1028 37.4763C22.3163 37.4763 22.5284 37.4063 22.704 37.2692L23.3722 36.7476L24.0013 49.0626C24.0212 49.4518 24.267 49.7926 24.6286 49.9325C24.743 49.9767 24.862 49.9983 24.9801 49.9983C25.2355 49.9983 25.4863 49.8978 25.6736 49.7093L31.4333 43.9159C34.5869 40.7438 36.3236 36.5264 36.3236 32.0404V26.6382L38.5957 24.8647C45.4053 19.5495 49.5524 11.5346 49.9739 2.87493L49.9973 2.39499C50.0291 1.74628 49.7834 1.1129 49.3235 0.656918ZM3.23471 24.0003L7.43512 19.7753C10.2149 16.9792 13.9101 15.4378 17.8407 15.4339L21.9506 15.5553L14.6547 24.5905L3.23471 24.0003ZM18.0445 36.5787C17.5326 37.0082 17.0079 37.4487 16.521 37.8515C15.5792 37.3385 14.7273 36.6983 13.9827 35.9431C13.2616 35.2118 12.6478 34.3791 12.1529 33.4618L14.2697 30.9341C14.9098 31.7978 15.6104 32.616 16.3672 33.3825C16.3678 33.3831 16.3684 33.3835 16.369 33.3841C16.3692 33.3843 16.3694 33.3846 16.3695 33.3848C16.3698 33.3851 16.3701 33.3853 16.3704 33.3856C17.2096 34.2351 18.1122 35.0146 19.0698 35.7196C18.7317 36.0019 18.3853 36.2927 18.0445 36.5787ZM34.363 32.0404C34.363 35.9995 32.8303 39.7216 30.047 42.5212L25.8466 46.7463L25.2604 35.2739L34.3629 28.169V32.0404H34.363ZM48.0157 2.77857C47.6223 10.8625 43.7508 18.3447 37.3939 23.3065L22.0168 35.309C20.7416 34.5595 19.5531 33.6746 18.4653 32.672L23.6495 27.4574C24.0323 27.0723 24.0323 26.4478 23.6495 26.0626C23.2666 25.6775 22.6458 25.6775 22.2628 26.0626L17.0835 31.2723C16.1313 30.2119 15.2879 29.0581 14.5698 27.8241L27.1779 12.2106C32.0053 6.23251 39.1565 2.52239 46.7978 2.03183L47.7107 1.97329C47.8304 1.96582 47.9104 2.02555 47.9474 2.06209C47.9842 2.09853 48.045 2.1778 48.0392 2.29872L48.0157 2.77857Z" fill="#FFE97F"/>
</svg>
