<svg width="50" height="50" viewBox="0 0 50 50" fill="none" xmlns="http://www.w3.org/2000/svg">
<path d="M7.9259 40.1816C8.46525 40.1816 8.90247 39.7369 8.90247 39.1884C8.90247 38.64 8.46525 38.1953 7.9259 38.1953C7.38656 38.1953 6.94934 38.64 6.94934 39.1884C6.94934 39.7369 7.38656 40.1816 7.9259 40.1816Z" fill="#FFE97F"/>
<path d="M45.0391 8.80705H39.2932C37.9961 8.80705 36.805 9.2772 35.8758 10.0586V9.80018V7.07285C35.8758 3.17274 32.756 0 28.921 0H22.4059C21.8665 0 21.4293 0.444722 21.4293 0.993127V3.72055C21.4293 7.62056 24.5491 10.7933 28.3841 10.7933H33.9227V14.2687V16.9481V20.8607C33.665 20.844 33.406 20.8347 33.1456 20.8347C30.5791 20.8347 28.1254 21.6394 26.0502 23.1615C25.6128 23.4823 25.5139 24.103 25.8294 24.5479C26.1449 24.9927 26.7553 25.0935 27.1927 24.7725C28.9332 23.4959 30.9918 22.8211 33.1456 22.8211C33.6662 22.8211 34.1809 22.863 34.6864 22.9417C34.7283 22.9512 34.7712 22.9579 34.8149 22.9618C37.8539 23.4756 40.5412 25.3731 42.0644 28.1689C42.2427 28.4961 42.5759 28.6808 42.9194 28.6808C43.0795 28.6808 43.2419 28.6407 43.3918 28.5562C43.8636 28.2903 44.0341 27.6859 43.7727 27.2061C42.0828 24.1044 39.1898 21.9313 35.8757 21.1525V17.9412H40.6451C43.6064 17.9412 46.0156 15.4912 46.0156 12.4796V9.80018C46.0156 9.25178 45.5784 8.80705 45.0391 8.80705ZM33.9227 8.80705H28.3841C25.6262 8.80705 23.3824 6.52524 23.3824 3.72055V1.98625H28.921C31.6789 1.98625 33.9227 4.26806 33.9227 7.07285V8.80705ZM44.0625 12.4797C44.0625 14.396 42.5295 15.9551 40.6451 15.9551H35.8758V14.2688C35.8758 12.3525 37.4088 10.7934 39.2932 10.7934H44.0625V12.4797Z" fill="#FFE97F"/>
<path d="M49.6741 32.231C48.8217 30.2679 46.5578 29.3764 44.6274 30.2427C44.6225 30.2449 44.6177 30.2471 44.6128 30.2493L38.2323 33.2417C37.7424 33.4714 37.5285 34.0614 37.7543 34.5595C37.9802 35.0577 38.5604 35.275 39.0501 35.0455L45.4229 32.0568C46.3665 31.6375 47.4708 32.0743 47.8872 33.0334C48.3045 33.9946 47.875 35.1218 46.9299 35.5463L33.8727 41.4092C31.8037 42.3383 29.4553 42.2843 27.4296 41.2607L22.6499 38.8459C20.103 37.5591 17.1502 37.4912 14.5489 38.6592L14.455 38.7015L10.8828 30.4739L15.8422 28.2471C18.2047 27.1862 20.841 27.1007 23.2653 28.006L32.8769 31.5956C33.7537 31.9231 34.2211 32.9207 33.9188 33.8195C33.6107 34.7356 32.6264 35.2282 31.7247 34.9182L24.2921 32.3616C23.7812 32.1858 23.227 32.4646 23.0541 32.9842C22.8813 33.5038 23.1554 34.0674 23.6663 34.2432L31.099 36.7998C31.4881 36.9337 31.8845 36.9972 32.2746 36.9972C33.8076 36.9972 35.2443 36.0158 35.7668 34.4627C36.4101 32.5505 35.4158 30.4279 33.5503 29.7312L23.9388 26.1416C21.037 25.058 17.8816 25.1603 15.0536 26.43L10.0623 28.6711C9.78155 28.2324 9.37618 27.893 8.88682 27.7001C8.27061 27.4573 7.59825 27.4731 6.9962 27.7435L0.584571 30.6004C0.229492 30.7587 0 31.1157 0 31.5101V49.0068C0 49.3517 0.175977 49.6719 0.464844 49.8528C0.62129 49.9506 0.798634 49.9999 0.976563 49.9999C1.12715 49.9999 1.27803 49.9646 1.4168 49.8933L13.8641 43.4986C14.456 43.2248 14.9106 42.7353 15.1458 42.1177C15.3418 41.6033 15.3664 41.0504 15.2213 40.5287L15.3377 40.4765C17.4069 39.5474 19.7552 39.6016 21.7809 40.625L26.5606 43.0398C29.1074 44.3266 32.0601 44.3946 34.6616 43.2264L47.7189 37.3635C49.6493 36.4966 50.5263 34.1941 49.6741 32.231ZM13.3246 41.4001C13.2743 41.532 13.1766 41.6362 13.0492 41.6933C13.0337 41.7003 13.0185 41.7077 13.0033 41.7155L1.95313 47.3924V43.0451L4.84161 41.6026C5.32579 41.3607 5.52549 40.7657 5.2877 40.2733C5.04991 39.7809 4.46455 39.5778 3.98067 39.8196L1.95313 40.8321V32.1591L7.78204 29.5616C7.90938 29.5045 8.05098 29.5011 8.18067 29.5522C8.31046 29.6033 8.4129 29.7028 8.46915 29.8322L13.0627 40.4122C13.0631 40.4132 13.0635 40.4141 13.0639 40.415L13.3155 40.9946C13.3717 41.1241 13.3749 41.2681 13.3246 41.4001Z" fill="#FFE97F"/>
</svg>
