<svg width="36" height="34" viewBox="0 0 36 34" fill="none" xmlns="http://www.w3.org/2000/svg">
<rect width="36" height="34" rx="5" fill="#FFE97F"/>
<path d="M12 10H25C25.7956 10 26.5587 10.3161 27.1213 10.8787C27.6839 11.4413 28 12.2044 28 13V22C28 22.7956 27.6839 23.5587 27.1213 24.1213C26.5587 24.6839 25.7956 25 25 25H12C11.2044 25 10.4413 24.6839 9.87868 24.1213C9.31607 23.5587 9 22.7956 9 22V13C9 12.2044 9.31607 11.4413 9.87868 10.8787C10.4413 10.3161 11.2044 10 12 10ZM12 11C11.512 11 11.064 11.175 10.717 11.466L18.5 16.52L26.283 11.466C25.9236 11.1644 25.4692 10.9994 25 11H12ZM18.5 17.712L10.134 12.28C10.0453 12.5097 9.99985 12.7538 10 13V22C10 22.5304 10.2107 23.0391 10.5858 23.4142C10.9609 23.7893 11.4696 24 12 24H25C25.5304 24 26.0391 23.7893 26.4142 23.4142C26.7893 23.0391 27 22.5304 27 22V13C27 12.746 26.953 12.503 26.866 12.28L18.5 17.711V17.712Z" fill="black" stroke="black" stroke-width="0.5"/>
</svg>
