<svg width="36" height="34" viewBox="0 0 36 34" fill="none" xmlns="http://www.w3.org/2000/svg">
<rect width="36" height="34" rx="5" fill="#FFE97F"/>
<path d="M17.6299 27.1221C17.7344 27.2053 17.8643 27.2497 17.9967 27.2505C18.1291 27.2512 18.2596 27.2084 18.3651 27.1264C18.5307 26.9981 20.4935 25.4602 22.4171 23.1568C24.334 20.8616 26.25 17.7616 26.25 14.5138C26.25 10.2187 22.5344 6.75 18 6.75C13.4656 6.75 9.75 10.2187 9.75 14.5138C9.75 17.7073 11.6659 20.8058 13.5811 23.1124C15.5011 25.4248 17.46 26.9881 17.6299 27.1221ZM17.6299 27.1221C17.6297 27.1219 17.6295 27.1217 17.6293 27.1216L17.7853 26.9263L17.6306 27.1226C17.6304 27.1224 17.6302 27.1223 17.6299 27.1221ZM18.0026 25.9473C17.2783 25.328 15.6087 23.8213 14.0705 21.8595C12.3991 19.7279 10.9167 17.1011 10.9167 14.5138C10.9167 10.8676 14.0798 7.875 18 7.875C21.9202 7.875 25.0833 10.8676 25.0833 14.5138C25.0833 17.1469 23.6017 19.7774 21.9324 21.8983C20.3961 23.8501 18.7282 25.3362 18.0026 25.9473Z" fill="black" stroke="black" stroke-width="0.5"/>
<path d="M18 10.5C15.6714 10.5 13.75 12.2789 13.75 14.5C13.75 16.7211 15.6714 18.5 18 18.5C20.3286 18.5 22.25 16.7211 22.25 14.5C22.25 12.2789 20.3286 10.5 18 10.5ZM18 17.375C16.2846 17.375 14.9167 16.0701 14.9167 14.5C14.9167 12.9299 16.2846 11.625 18 11.625C19.7154 11.625 21.0833 12.9299 21.0833 14.5C21.0833 16.0701 19.7154 17.375 18 17.375Z" fill="black" stroke="black" stroke-width="0.5"/>
</svg>
