<svg width="64" height="64" viewBox="0 0 64 64" fill="none" xmlns="http://www.w3.org/2000/svg">
<path d="M48.8229 8.38611H14.7604C11.6252 8.38611 9.08333 10.7804 9.08333 13.7336V46.888C9.08333 47.4787 9.59161 47.9575 10.2188 47.9575C10.8454 47.9575 11.3542 47.4787 11.3542 46.888V13.7336C11.3542 11.9618 12.879 10.5251 14.7604 10.5251H48.8229C50.7039 10.5251 52.2292 11.9618 52.2292 13.7336V58.6524C52.2292 60.4242 50.7039 61.8609 48.8229 61.8609C46.9415 61.8609 45.4167 60.4242 45.4167 58.6524V53.3049C45.4167 52.1235 44.3997 51.166 43.1458 51.166H2.27083C1.01655 51.166 0 52.1235 0 53.3049V58.6524C0 61.6057 2.54183 63.9999 5.67708 63.9999H48.8229C51.9577 63.9999 54.5 61.6057 54.5 58.6524V13.7336C54.5 10.7804 51.9577 8.38611 48.8229 8.38611ZM5.67708 61.8609C3.79566 61.8609 2.27083 60.4242 2.27083 58.6524V53.3049H43.1458V58.6524C43.1458 59.8097 43.5441 60.9351 44.2812 61.8609H5.67708Z" fill="#FFE97F"/>
<path d="M43.3611 21.1862C43.9897 21.1862 44.5 20.791 44.5 20.3034C44.5 19.8158 43.9897 19.4207 43.3611 19.4207H25.1389C24.5098 19.4207 24 19.8158 24 20.3034C24 20.791 24.5098 21.1862 25.1389 21.1862H43.3611Z" fill="#FFE97F"/>
<path d="M18 26.7035C18 27.313 18.5158 27.807 19.1522 27.807H43.3478C43.9838 27.807 44.5 27.313 44.5 26.7035C44.5 26.0941 43.9838 25.6001 43.3478 25.6001H19.1522C18.5158 25.6001 18 26.0941 18 26.7035Z" fill="#FFE97F"/>
<path d="M19.1522 33.9862H43.3478C43.9838 33.9862 44.5 33.591 44.5 33.1035C44.5 32.6159 43.9838 32.2207 43.3478 32.2207H19.1522C18.5158 32.2207 18 32.6159 18 33.1035C18 33.591 18.5158 33.9862 19.1522 33.9862Z" fill="#FFE97F"/>
<path d="M19.1522 40.6068H43.3478C43.9838 40.6068 44.5 40.1128 44.5 39.5034C44.5 38.8939 43.9838 38.3999 43.3478 38.3999H19.1522C18.5158 38.3999 18 38.8939 18 39.5034C18 40.1128 18.5158 40.6068 19.1522 40.6068Z" fill="#FFE97F"/>
<path d="M19.1579 46.7863H38.8421C39.4812 46.7863 40 46.3911 40 45.9035C40 45.4159 39.4812 45.0208 38.8421 45.0208H19.1579C18.5183 45.0208 18 45.4159 18 45.9035C18 46.3911 18.5183 46.7863 19.1579 46.7863Z" fill="#FFE97F"/>
<path d="M58.25 0H23.75C20.5745 0 18 2.39425 18 5.34748C18 5.93821 18.5148 6.41698 19.15 6.41698C19.7847 6.41698 20.3 5.93821 20.3 5.34748C20.3 3.57571 21.8444 2.13899 23.75 2.13899H58.25C60.1551 2.13899 61.7 3.57571 61.7 5.34748V50.2663C61.7 52.0381 60.1551 53.4748 58.25 53.4748C57.6148 53.4748 57.1 53.9536 57.1 54.5443C57.1 55.135 57.6148 55.6138 58.25 55.6138C61.4251 55.6138 64 53.2195 64 50.2663V5.34748C64 2.39425 61.4251 0 58.25 0Z" fill="#FFE97F"/>
</svg>
