<svg width="266" height="267" viewBox="0 0 266 267" fill="none" xmlns="http://www.w3.org/2000/svg">
<path d="M262.923 70.8913C262.23 68.8278 259.833 67.6646 257.565 68.2982C255.299 68.9317 254.025 71.1195 254.72 73.185C256.512 78.514 257.42 84.2931 257.42 90.3635C257.42 122.237 232.519 155.948 208.963 155.975C208.954 155.975 208.943 155.975 208.934 155.975C208.925 155.975 208.916 155.975 208.907 155.975C195.152 155.958 180.174 144.343 170.255 126.179C185.009 109.031 194.066 85.226 194.066 64.4074C194.066 57.514 193.118 50.8732 191.293 44.648C196.816 42.6802 202.733 41.6821 208.936 41.6821C224.032 41.6821 237.298 47.5264 246.292 58.1374C247.742 59.8485 250.437 60.1622 252.312 58.8422C254.186 57.5201 254.53 55.0655 253.083 53.3544C242.581 40.965 226.49 33.8598 208.936 33.8598C201.817 33.8598 194.998 34.9843 188.607 37.2047C178.407 13.6584 155.282 0 129.067 0C117.444 0 106.191 2.73779 96.529 7.91801C94.4867 9.0119 93.803 11.4095 95.0051 13.2714C96.205 15.1332 98.835 15.7545 100.877 14.6606C109.223 10.1873 118.972 7.82227 129.067 7.82227C161.758 7.82227 185.483 31.6191 185.483 64.4074C185.483 97.9331 158.924 140.463 129.072 140.465C129.072 140.465 129.07 140.465 129.067 140.465C129.067 140.465 129.065 140.465 129.063 140.465C99.2126 140.461 72.6537 97.9311 72.6537 64.4074C72.6537 49.2925 77.4846 35.9417 86.6259 25.7951C88.1297 24.1268 87.8637 21.662 86.0337 20.291C84.2015 18.9201 81.4977 19.1605 79.994 20.8309C71.3421 30.4335 66.0911 42.4623 64.556 55.9699C60.5541 55.096 56.4203 54.6438 52.1972 54.6438C23.1804 54.6438 0 75.3565 0 106.297C0 118.43 3.73603 131.644 10.5199 143.51C11.6148 145.425 14.2067 146.168 16.3071 145.17C18.4098 144.172 19.2254 141.809 18.1282 139.894C11.9723 129.124 8.58036 117.193 8.58036 106.297C8.58036 80.8993 26.9231 62.4661 52.1972 62.4661C56.284 62.4661 60.2681 62.9652 64.0823 63.9348C63.9393 87.1286 74.9016 112.92 91.1127 129.731C83.0217 150.581 66.9134 165.494 52.1972 165.494C42.3834 165.494 34.098 159.305 28.876 154.113C27.2739 152.52 24.5613 152.414 22.8139 153.873C21.0666 155.333 20.9504 157.808 22.5503 159.399C28.981 165.793 35.9548 170.061 43.0805 172.041L39.9478 183.192C39.2529 185.663 41.3019 188.075 44.1039 188.075H50.2934C55.4193 193.837 55.0439 202.344 49.1628 207.706C39.5344 216.483 39.5344 230.767 49.1628 239.545C55.4461 245.275 55.4461 254.594 49.1628 260.323C47.4869 261.85 47.4869 264.327 49.1628 265.853C50.8386 267.381 53.5557 267.381 55.2293 265.853C64.8599 257.076 64.8599 242.792 55.2293 234.014C48.946 228.286 48.946 218.964 55.2293 213.236C62.6813 206.445 64.3616 196.357 60.2815 188.075H60.2904C63.088 188.075 65.1414 185.665 64.4465 183.192L61.3183 172.059C77.4444 167.596 90.5652 151.909 97.7312 135.845C104.47 141.347 111.674 145.136 118.95 146.985C118.715 147.594 119.028 146.547 114.655 162.106C113.96 164.577 116.009 166.989 118.811 166.989H124.844C125.72 171.784 128.196 176.205 132.041 179.712C135.246 182.634 137.033 186.502 137.087 190.625C134.962 189.071 132.265 188.14 129.335 188.14C122.494 188.14 116.925 193.214 116.925 199.454C116.925 205.279 121.785 210.093 128.004 210.7C118.927 219.089 118.965 232.645 128.118 240.991C133.979 246.334 133.979 254.979 128.118 260.323C126.442 261.85 126.442 264.327 128.118 265.855C129.794 267.381 132.511 267.381 134.184 265.855C143.377 257.475 143.377 243.839 134.184 235.458C128.339 230.129 128.339 221.456 134.184 216.125C137.889 212.749 140.327 208.529 141.285 203.943C144.137 200.095 145.667 195.563 145.667 190.816C145.667 184.532 142.984 178.625 138.11 174.182C135.894 172.161 134.356 169.686 133.601 166.989H139.324C142.121 166.989 144.175 164.579 143.48 162.106C139.093 146.502 139.42 147.59 139.185 146.985C147.844 144.783 156.395 139.831 164.191 132.524C173.482 148.216 186.203 158.957 199.431 162.512C199.268 163.033 199.947 160.631 195.86 175.172C195.165 177.643 197.214 180.053 200.016 180.053H201.259C198.385 186.865 199.898 194.939 206.025 200.523C210.889 204.958 210.889 212.175 206.025 216.61C202.751 219.594 200.588 223.315 199.719 227.363C193.813 235.424 194.66 246.544 202.613 253.796C205.336 256.279 206.836 259.579 206.836 263.089C206.836 265.248 208.757 267 211.126 267C213.494 267 215.416 265.248 215.416 263.089C215.416 257.489 213.025 252.225 208.681 248.265C206.273 246.069 204.82 243.232 204.519 240.174C206.284 241.209 208.386 241.81 210.639 241.81C216.895 241.81 221.985 237.169 221.985 231.466C221.985 226.475 218.093 222.301 212.929 221.331C220.254 213.853 220.093 202.285 212.091 194.992C207.642 190.937 207.22 184.557 211.008 180.053H217.849C220.647 180.053 222.7 177.645 222.006 175.172L218.515 162.754C218.491 162.669 218.459 162.589 218.433 162.506C245.24 155.272 266 119.911 266 90.3635C266 83.5169 264.965 76.9658 262.923 70.8913ZM49.632 180.252L51.4285 173.862C51.6319 173.139 52.7647 173.137 52.9681 173.862L54.7646 180.252H49.632ZM129.724 202.925C127.226 203.151 125.148 201.171 125.559 198.869C125.812 197.459 127.032 196.304 128.567 196.031C130.859 195.624 133.194 197.097 133.163 199.674C133.143 201.411 131.429 202.772 129.724 202.925ZM124.339 159.167L126.983 149.764C127.534 147.796 130.6 147.796 131.154 149.764L133.798 159.167H124.339ZM213.356 231.953C213.155 232.928 212.301 233.729 211.233 233.933C209.45 234.273 207.87 233.034 207.87 231.458C207.868 230.034 209.086 229.121 210.228 228.97C212.116 228.72 213.713 230.221 213.356 231.953ZM205.544 172.23L207.663 164.695C207.998 163.504 209.868 163.502 210.205 164.695L212.321 172.23H205.544Z" fill="#FFE97F"/>
</svg>
