<svg width="50" height="50" viewBox="0 0 50 50" fill="none" xmlns="http://www.w3.org/2000/svg">
<path d="M48.9716 4.13779H45.6801V0.976562C45.6801 0.437207 45.2197 0 44.6518 0C44.0839 0 43.6236 0.437207 43.6236 0.976562V4.71064L39.3248 8.80439C34.9884 5.05586 29.414 3.00186 23.5144 3.00186C17.2335 3.00186 11.3284 5.3248 6.88716 9.54277C2.44591 13.7607 0 19.3689 0 25.3341C0 31.2992 2.44591 36.9074 6.88716 41.1254C7.57804 41.7815 8.30441 42.3917 9.06202 42.9545L3.399 48.3328C2.99747 48.7142 2.99747 49.3325 3.399 49.714C3.59982 49.9046 3.86295 50 4.12609 50C4.38922 50 4.65245 49.9046 4.85317 49.714L10.7607 44.1033C14.5271 46.4219 18.9197 47.6663 23.5143 47.6663C28.1312 47.6663 32.5442 46.4097 36.3229 44.0693L42.2663 49.714C42.4671 49.9046 42.7302 50 42.9934 50C43.2565 50 43.5197 49.9046 43.7204 49.714C44.122 49.3326 44.1221 48.7143 43.7204 48.3328L38.017 42.9161C38.7563 42.3638 39.466 41.7668 40.1415 41.1254C44.5827 36.9074 47.0286 31.2992 47.0286 25.3341C47.0286 21.9367 46.2457 18.674 44.7017 15.6365C44.4548 15.1508 43.8399 14.9471 43.3287 15.1816C42.8172 15.4161 42.6028 15.9999 42.8497 16.4856C44.258 19.2562 44.9721 22.2332 44.9721 25.3341C44.9721 36.5712 35.3461 45.7133 23.5142 45.7133C11.6822 45.7133 2.0562 36.5713 2.0562 25.3341C2.0562 14.097 11.6822 4.95488 23.5142 4.95488C28.8657 4.95488 33.9244 6.80625 37.8714 10.1883L34.2623 13.6253C31.2829 11.1521 27.5049 9.8 23.5143 9.8C14.4953 9.8 7.1579 16.7686 7.1579 25.3341C7.1579 33.8996 14.4955 40.8682 23.5145 40.8682C32.5334 40.8682 39.8709 33.8996 39.8709 25.3341C39.8709 23.9526 39.6797 22.5823 39.3025 21.261C38.6407 18.9421 37.4113 16.7956 35.7245 14.9988L40.0716 10.8591C40.0729 10.8578 40.0744 10.8567 40.0758 10.8555C40.077 10.8543 40.0779 10.853 40.0792 10.852L45.0787 6.09092H48.9717C49.5396 6.09092 50 5.65371 50 5.11436C50 4.575 49.5395 4.13779 48.9716 4.13779ZM37.3177 21.772C37.6474 22.9268 37.8144 24.1252 37.8144 25.3341C37.8144 32.8227 31.3996 38.915 23.5146 38.915C15.6296 38.915 9.21472 32.8226 9.21472 25.3341C9.21472 17.8456 15.6296 11.7531 23.5146 11.7531C26.9571 11.7531 30.219 12.9034 32.8074 15.0111L28.5623 19.0538C27.161 18.0354 25.4113 17.4285 23.5146 17.4285C18.9248 17.4285 15.1905 20.9749 15.1905 25.3341C15.1905 29.6933 18.9247 33.2396 23.5146 33.2396C28.1045 33.2396 31.8386 29.6933 31.8386 25.3341C31.8386 23.4789 31.1606 21.7723 30.0297 20.4223L34.2694 16.3848C35.703 17.9381 36.75 19.7825 37.3177 21.772ZM22.9258 25.8043C23.1265 25.9943 23.3892 26.0894 23.652 26.0894C23.9155 26.0894 24.1791 25.9938 24.3801 25.8024L28.5661 21.816C29.3297 22.8023 29.782 24.0187 29.782 25.3341C29.782 28.6162 26.9704 31.2865 23.5145 31.2865C20.0585 31.2865 17.2469 28.6162 17.2469 25.3341C17.2469 22.052 20.0585 19.3816 23.5145 19.3816C24.8445 19.3816 26.0782 19.7783 27.0938 20.4521L22.9238 24.4231C22.5228 24.8051 22.5237 25.4233 22.9258 25.8043Z" fill="#FFE97F"/>
<path d="M41.7832 14.0273C42.3511 14.0273 42.8115 13.5901 42.8115 13.0508C42.8115 12.5114 42.3511 12.0742 41.7832 12.0742C41.2153 12.0742 40.7549 12.5114 40.7549 13.0508C40.7549 13.5901 41.2153 14.0273 41.7832 14.0273Z" fill="#F2C98C"/>
</svg>
