<svg width="30" height="25" viewBox="0 0 30 25" fill="none" xmlns="http://www.w3.org/2000/svg">
<path d="M11.192 24.5531C9.89472 24.5531 8.55943 24.448 7.21613 24.2375C4.8502 23.8662 2.4552 22.6287 1.77748 22.2581L0 21.2863L1.92442 20.6534C4.02806 19.9617 5.30773 19.5326 6.89181 18.8606C5.30567 18.0925 4.08322 16.7107 3.49477 14.9246L3.04708 13.5655L3.4142 13.6215C3.06608 13.2707 2.79119 12.9145 2.57811 12.5907C1.82028 11.4396 1.41906 10.0332 1.50443 8.82787L1.58866 7.64159L2.29887 7.9167C1.99927 7.35091 1.78275 6.74667 1.65549 6.11335C1.34536 4.56887 1.60491 2.92803 2.38653 1.49318L3.0052 0.357477L3.8326 1.35127C6.44938 4.49471 9.7638 6.3594 13.6976 6.90528C13.5369 5.79773 13.6573 4.72886 14.0558 3.77077C14.5197 2.6552 15.345 1.70924 16.4418 1.03496C17.6599 0.286295 19.1371 -0.0764799 20.6013 0.0134701C22.1547 0.108913 23.565 0.690955 24.6852 1.6978C25.2322 1.55566 25.6353 1.40392 26.18 1.19884C26.5077 1.07547 26.8794 0.935399 27.3445 0.775183L29.0584 0.184672L27.9408 3.37663C28.0145 3.37045 28.0905 3.36519 28.1699 3.36176L30 3.2789L28.9183 4.75724C28.8563 4.84192 28.8405 4.86596 28.8185 4.89914C28.7313 5.03052 28.6228 5.19394 27.1381 7.1765C26.7664 7.67294 26.5808 8.31953 26.6153 8.99747C26.7469 11.5737 26.4308 13.9047 25.6753 15.9252C24.9607 17.8368 23.8534 19.477 22.3845 20.8001C20.5667 22.4371 18.2488 23.5579 15.495 24.131C14.1441 24.4121 12.6935 24.5531 11.192 24.5531Z" fill="#FFE97F"/>
</svg>
