<svg width="36" height="34" viewBox="0 0 36 34" fill="none" xmlns="http://www.w3.org/2000/svg">
<rect width="36" height="34" rx="5" fill="#FFE97F"/>
<path d="M28 21.9201V24.9201C28.0011 25.1986 27.9441 25.4743 27.8325 25.7294C27.7209 25.9846 27.5573 26.2137 27.3521 26.402C27.1468 26.5902 26.9046 26.7336 26.6407 26.8228C26.3769 26.912 26.0974 26.9452 25.82 26.9201C22.7428 26.5857 19.787 25.5342 17.19 23.8501C14.7738 22.3148 12.7253 20.2663 11.19 17.8501C9.49997 15.2413 8.44824 12.2711 8.11999 9.1801C8.095 8.90356 8.12787 8.62486 8.21649 8.36172C8.30512 8.09859 8.44756 7.85679 8.63476 7.65172C8.82196 7.44665 9.0498 7.28281 9.30379 7.17062C9.55777 7.05843 9.83233 7.00036 10.11 7.0001H13.11C13.5953 6.99532 14.0658 7.16718 14.4338 7.48363C14.8017 7.80008 15.0421 8.23954 15.11 8.7201C15.2366 9.68016 15.4714 10.6228 15.81 11.5301C15.9445 11.888 15.9737 12.277 15.8939 12.651C15.8141 13.0249 15.6289 13.3682 15.36 13.6401L14.09 14.9101C15.5135 17.4136 17.5864 19.4865 20.09 20.9101L21.36 19.6401C21.6319 19.3712 21.9751 19.1859 22.3491 19.1062C22.7231 19.0264 23.1121 19.0556 23.47 19.1901C24.3773 19.5286 25.3199 19.7635 26.28 19.8901C26.7658 19.9586 27.2094 20.2033 27.5265 20.5776C27.8437 20.9519 28.0122 21.4297 28 21.9201Z" stroke="black" stroke-width="2" stroke-linecap="round" stroke-linejoin="round"/>
</svg>
